<svg width="22" height="22" viewBox="0 0 22 22" fill="none" xmlns="http://www.w3.org/2000/svg">
<circle cx="11" cy="11" r="11" fill="#F5A524"/>
<path d="M11.2705 4C9.37446 4 7.83301 5.58713 7.83301 7.53936C7.83301 9.45435 9.28761 11.0042 11.1837 11.0713C11.2416 11.0638 11.2995 11.0638 11.3429 11.0713C11.3574 11.0713 11.3646 11.0713 11.3791 11.0713C11.3863 11.0713 11.3863 11.0713 11.3935 11.0713C13.2462 11.0042 14.7008 9.45435 14.708 7.53936C14.708 5.58713 13.1666 4 11.2705 4Z" fill="white"/>
<path d="M15.0742 12.9796C12.9853 11.6487 9.57878 11.6487 7.47494 12.9796C6.52409 13.5878 6 14.4107 6 15.2908C6 16.1709 6.52409 16.9866 7.46745 17.5876C8.51563 18.2602 9.89321 18.5965 11.2708 18.5965C12.6484 18.5965 14.026 18.2602 15.0742 17.5876C16.0176 16.9794 16.5417 16.1637 16.5417 15.2765C16.5342 14.3964 16.0176 13.5807 15.0742 12.9796Z" fill="white"/>
</svg>
