<svg width="48" height="48" viewBox="0 0 48 48" fill="none" xmlns="http://www.w3.org/2000/svg">
<circle cx="24" cy="24" r="24" fill="#E08E0A"/>
<path d="M24 8.31445C19.8632 8.31445 16.5 11.7773 16.5 16.0367C16.5 20.2148 19.6737 23.5964 23.8105 23.7427C23.9368 23.7264 24.0632 23.7264 24.1579 23.7427C24.1895 23.7427 24.2053 23.7427 24.2368 23.7427C24.2526 23.7427 24.2526 23.7427 24.2684 23.7427C28.3105 23.5964 31.4842 20.2148 31.5 16.0367C31.5 11.7773 28.1368 8.31445 24 8.31445Z" fill="white"/>
<path d="M32.2992 27.9063C27.7417 25.0026 20.3092 25.0026 15.719 27.9063C13.6444 29.2333 12.501 31.0286 12.501 32.9489C12.501 34.8691 13.6444 36.6488 15.7027 37.9602C17.9896 39.4276 20.9952 40.1614 24.0009 40.1614C27.0066 40.1614 30.0123 39.4276 32.2992 37.9602C34.3575 36.6332 35.501 34.8535 35.501 32.9176C35.4846 30.9974 34.3575 29.2177 32.2992 27.9063Z" fill="white"/>
</svg>
